<?xml version="1.0" standalone="no"?>
<!DOCTYPE svg PUBLIC "-//W3C//DTD SVG 20010904//EN"
 "http://www.w3.org/TR/2001/REC-SVG-20010904/DTD/svg10.dtd">
<svg version="1.0" xmlns="http://www.w3.org/2000/svg"
 width="417.000000pt" height="174.000000pt" viewBox="0 0 417.000000 174.000000"
 preserveAspectRatio="xMidYMid meet">

<g transform="translate(0.000000,174.000000) scale(0.100000,-0.100000)"
fill="#000000" stroke="none">
<path d="M0 870 l0 -870 2085 0 2085 0 0 870 0 870 -2085 0 -2085 0 0 -870z
m669 275 c13 -13 17 -51 21 -203 l5 -187 25 0 c24 0 25 3 28 70 3 77 26 115
69 115 31 0 29 -24 -2 -38 -23 -11 -25 -17 -25 -80 0 -58 -3 -72 -22 -89 -37
-33 -55 -34 -88 -7 l-30 26 0 183 c0 113 -4 186 -10 190 -6 3 -19 3 -30 0 -19
-6 -20 -15 -20 -216 0 -133 -4 -209 -10 -209 -5 0 -10 -5 -10 -11 0 -5 5 -7
10 -4 18 11 11 -8 -12 -32 -27 -29 -65 -29 -95 -1 -22 21 -23 26 -23 204 0
152 -3 184 -16 194 -26 22 -43 -7 -45 -78 -2 -72 -25 -112 -65 -112 -31 0 -30
9 2 35 24 19 26 28 26 89 0 55 4 71 21 87 25 23 64 24 92 3 18 -14 20 -30 25
-207 l5 -192 25 0 25 0 3 219 c2 200 4 221 22 246 17 23 26 28 52 24 18 -2 39
-11 47 -19z m732 -58 c39 -21 89 -76 89 -98 0 -18 -82 -9 -107 11 -31 24 -118
27 -149 5 -12 -8 -23 -12 -26 -10 -4 5 -6 -8 -14 -85 -4 -44 -1 -62 15 -87 39
-62 157 -67 195 -8 27 41 21 47 -46 44 l-63 -3 0 30 0 29 103 2 102 1 0 -24
c0 -14 -5 -35 -11 -46 -8 -15 -8 -19 0 -14 16 11 13 -2 -11 -45 -12 -22 -26
-39 -32 -39 -6 0 -5 5 2 12 7 7 12 16 12 22 0 5 -6 1 -14 -9 -8 -11 -12 -23
-10 -27 6 -9 -37 -38 -47 -32 -5 3 -20 -3 -34 -12 -60 -39 -182 8 -230 90 -44
75 -30 200 28 255 15 13 31 20 38 16 7 -5 10 -4 6 2 -11 17 54 43 109 43 34 0
65 -8 95 -23z m425 12 c3 -5 10 -7 15 -4 5 4 9 1 9 -4 0 -6 7 -11 16 -11 27 0
76 -57 69 -80 -5 -15 -3 -18 9 -14 10 4 15 0 15 -13 0 -10 3 -33 7 -50 8 -42
-3 -93 -17 -72 -5 7 -9 9 -9 3 0 -5 5 -15 12 -22 8 -8 9 -15 1 -23 -7 -7 -14
-1 -23 21 -9 23 -15 28 -21 18 -5 -7 -9 -17 -9 -23 0 -5 5 -3 10 5 10 16 12
12 15 -33 2 -21 -2 -26 -15 -22 -22 7 -58 -19 -40 -30 8 -5 11 -4 7 2 -8 13
20 26 35 17 5 -3 -5 -17 -23 -30 -18 -13 -35 -21 -40 -19 -4 3 -9 -1 -11 -7
-7 -19 -146 -18 -158 2 -5 8 -6 18 -3 24 3 5 1 6 -6 2 -6 -4 -9 -12 -5 -17 3
-6 -3 -5 -15 3 -22 14 -28 28 -11 28 6 0 10 5 10 12 0 9 -3 9 -12 0 -7 -7 -15
-12 -19 -12 -12 0 -50 72 -56 104 -9 56 -4 118 10 109 6 -3 7 -1 3 5 -4 6 -2
22 5 34 17 33 78 90 89 83 6 -4 10 -2 10 4 0 12 22 17 88 18 28 1 55 -3 58 -8z
m230 -1 c4 -6 11 -25 15 -42 6 -28 7 -28 8 -6 1 14 6 32 11 40 8 11 9 -1 6
-40 l-5 -55 13 50 14 50 -1 -63 c-1 -41 3 -66 11 -71 10 -6 11 -13 1 -34 -7
-15 -16 -24 -20 -21 -5 3 -9 -2 -9 -10 0 -20 19 -20 40 -1 16 14 18 13 23 -22
5 -29 2 -42 -14 -59 -20 -22 -19 -44 2 -44 6 0 7 5 4 10 -3 6 2 18 11 28 17
16 17 16 12 -5 -7 -27 9 -41 25 -23 9 10 9 11 -2 5 -11 -7 -13 -4 -6 11 5 10
9 29 9 41 1 11 4 19 8 17 4 -3 6 -25 4 -49 -1 -25 1 -45 6 -45 10 0 11 -30 1
-31 -5 0 -20 -3 -35 -5 -16 -3 -28 0 -28 6 0 6 -4 8 -10 5 -5 -3 -10 -13 -10
-21 0 -9 5 -12 12 -8 7 4 8 3 4 -4 -13 -21 -22 -13 -34 26 -10 35 -10 36 5 17
15 -19 15 -19 8 5 -4 14 -7 38 -6 54 0 16 -4 36 -10 45 -8 12 -9 9 -5 -14 2
-17 1 -37 -5 -45 -7 -13 -9 -13 -9 0 0 8 -7 41 -14 73 -8 31 -10 55 -5 51 5
-3 9 14 9 38 l-1 43 -14 -30 -13 -30 -2 30 c-1 17 -2 34 -1 38 1 4 -4 18 -11
30 -22 41 -15 102 8 65z m309 -16 c8 -34 -1 -39 -10 -5 l-8 28 -7 -30 -8 -30
-1 28 c-1 29 -21 38 -22 10 0 -16 -1 -15 -8 2 -7 17 -9 16 -15 -9 -4 -16 -9
-26 -12 -23 -3 2 -2 16 2 31 5 22 11 26 44 24 32 -1 40 -5 45 -26z m195 -29
c-11 -17 -11 -17 -6 0 3 10 6 24 7 30 0 9 2 9 5 0 3 -7 0 -20 -6 -30z m-43 -5
c-3 -8 -6 -5 -6 6 -1 11 2 17 5 13 3 -3 4 -12 1 -19z m-247 -25 c0 -25 -15
-12 -17 14 -1 19 1 22 8 12 5 -8 9 -20 9 -26z m37 2 c-6 -19 -14 -35 -19 -35
-4 0 -8 -12 -7 -27 l0 -28 10 24 c12 31 19 24 12 -12 -4 -18 -10 -26 -18 -23
-8 3 -16 -2 -19 -10 -9 -24 -7 -54 4 -54 6 0 10 -5 10 -11 0 -8 -5 -8 -15 1
-8 7 -15 28 -15 47 0 23 -4 32 -11 27 -7 -4 -10 -1 -7 7 3 8 11 13 17 12 6 -2
11 6 11 16 0 11 5 23 10 26 6 3 10 18 10 33 0 21 2 24 10 12 8 -12 10 -11 10
8 0 12 4 22 9 22 5 0 4 -15 -2 -35z m242 -25 c0 -9 -4 -8 -9 5 -5 11 -9 27 -9
35 0 9 4 8 9 -5 5 -11 9 -27 9 -35z m-202 3 c-3 -10 -5 -4 -5 12 0 17 2 24 5
18 2 -7 2 -21 0 -30z m173 23 c0 -3 -4 -8 -10 -11 -5 -3 -10 -1 -10 4 0 6 5
11 10 11 6 0 10 -2 10 -4z m-380 -27 c0 -6 -4 -7 -10 -4 -5 3 -10 11 -10 16 0
6 5 7 10 4 6 -3 10 -11 10 -16z m254 -19 c10 -13 9 -13 -6 -1 -10 7 -18 21
-17 30 0 13 1 14 6 1 3 -8 11 -22 17 -30z m132 -7 c-5 -17 -3 -29 6 -34 7 -5
9 -9 3 -9 -27 0 -36 17 -24 43 16 35 23 35 15 0z m-171 -85 c3 -48 2 -50 -5
-17 -5 20 -11 48 -14 62 -2 15 -7 32 -11 39 -3 7 2 3 11 -9 9 -13 18 -46 19
-75z m24 44 c-1 -33 -2 -34 -9 -12 -12 36 -12 62 0 55 6 -3 10 -23 9 -43z m45
-69 c5 -21 4 -33 -3 -33 -5 0 -9 8 -9 18 1 9 -2 33 -5 52 -9 43 7 10 17 -37z
m91 -1 c-5 -20 -8 -23 -16 -11 -5 7 -8 21 -8 29 0 10 3 8 9 -5 7 -17 9 -14 10
15 1 19 4 27 7 17 3 -10 2 -30 -2 -45z m-287 31 c-1 -10 1 -25 6 -33 7 -12 6
-12 -8 1 -10 9 -14 22 -10 32 8 22 16 22 12 0z m157 -92 c-7 -24 -8 -25 -15
-6 -12 28 -12 43 0 25 7 -11 10 -5 11 25 2 32 3 34 6 11 3 -15 1 -40 -2 -55z
m136 -4 c-8 -8 -11 -7 -11 4 0 20 13 34 18 19 3 -7 -1 -17 -7 -23z m-81 -5 c0
-15 -2 -15 -10 -2 -8 12 -10 12 -10 1 0 -8 -2 -12 -5 -9 -3 3 -3 13 1 22 7 19
24 11 24 -12z m33 9 c3 -13 1 -18 -9 -14 -7 2 -10 11 -7 19 7 19 10 18 16 -5z
m-233 -6 c0 -8 5 -15 10 -15 6 0 10 -5 10 -11 0 -14 -18 -2 -30 22 -7 13 -7
19 0 19 5 0 10 -7 10 -15z m257 -7 c-3 -8 -6 -5 -6 6 -1 11 2 17 5 13 3 -3 4
-12 1 -19z m-110 -60 c-3 -7 -5 -2 -5 12 0 14 2 19 5 13 2 -7 2 -19 0 -25z"/>
<path d="M1665 1060 c4 -6 11 -8 16 -5 14 9 11 15 -7 15 -8 0 -12 -5 -9 -10z"/>
<path d="M1870 1060 c0 -5 5 -10 11 -10 5 0 7 5 4 10 -3 6 -8 10 -11 10 -2 0
-4 -4 -4 -10z"/>
<path d="M1733 1029 c-5 -5 -19 -11 -31 -12 -12 0 -19 -3 -17 -5 2 -3 -5 -16
-15 -30 -15 -18 -20 -40 -20 -84 0 -52 3 -63 29 -89 25 -25 37 -29 83 -29 31
0 62 6 74 15 12 8 25 11 29 7 5 -4 5 1 2 10 -3 9 -1 18 6 21 6 2 10 21 9 46
-2 26 1 40 7 37 5 -4 9 2 8 13 -1 11 -3 18 -6 16 -2 -3 -12 8 -22 25 -18 28
-84 70 -112 70 -7 0 -18 -5 -24 -11z"/>
<path d="M1847 1034 c-7 -8 15 -44 27 -44 5 0 1 9 -8 19 -13 15 -14 20 -4 24
7 3 8 6 2 6 -6 1 -13 -2 -17 -5z"/>
<path d="M1885 1029 c-11 -16 -1 -19 13 -3 7 8 8 14 3 14 -5 0 -13 -5 -16 -11z"/>
<path d="M1886 985 c-9 -26 -7 -32 5 -12 6 10 9 21 6 23 -2 3 -7 -2 -11 -11z"/>
<path d="M2051 1054 c0 -11 3 -14 6 -6 3 7 2 16 -1 19 -3 4 -6 -2 -5 -13z"/>
<path d="M2100 965 c0 -14 4 -25 9 -25 4 0 6 11 3 25 -2 14 -6 25 -8 25 -2 0
-4 -11 -4 -25z"/>
<path d="M2142 840 c0 -14 2 -19 5 -12 2 6 2 18 0 25 -3 6 -5 1 -5 -13z"/>
</g>
</svg>
