<?xml version="1.0" standalone="no"?>
<!DOCTYPE svg PUBLIC "-//W3C//DTD SVG 20010904//EN"
 "http://www.w3.org/TR/2001/REC-SVG-20010904/DTD/svg10.dtd">
<svg version="1.0" xmlns="http://www.w3.org/2000/svg"
 width="500.000000pt" height="500.000000pt" viewBox="0 0 500.000000 500.000000"
 preserveAspectRatio="xMidYMid meet">

<g transform="translate(0.000000,500.000000) scale(0.100000,-0.100000)"
fill="#000000" stroke="none">
<path d="M0 2500 l0 -2500 2500 0 2500 0 0 2500 0 2500 -2500 0 -2500 0 0
-2500z m1148 257 c7 -9 12 -77 14 -193 l3 -179 30 0 30 0 5 77 c5 82 12 96 49
100 33 4 37 -16 6 -30 -23 -11 -25 -17 -25 -75 0 -71 -20 -112 -51 -104 -11 3
-17 1 -13 -4 10 -16 -13 -10 -40 12 l-26 20 0 179 c0 170 -1 179 -20 185 -11
3 -24 3 -30 0 -6 -4 -10 -82 -10 -204 0 -140 -3 -200 -12 -209 -9 -9 -9 -12 2
-12 9 0 5 -9 -10 -25 -28 -30 -63 -32 -90 -5 -18 18 -20 33 -20 194 0 146 -2
176 -16 187 -30 25 -49 -1 -54 -78 -5 -77 -20 -103 -56 -103 -31 0 -30 13 1
34 22 15 25 23 25 81 0 75 20 105 69 105 54 0 61 -24 61 -216 0 -179 6 -203
44 -188 14 5 16 32 16 218 0 172 3 216 15 233 25 35 74 35 103 0z m700 -48
c38 -19 82 -68 82 -91 0 -17 -83 -7 -107 12 -34 27 -102 27 -135 0 -81 -63
-50 -207 47 -223 48 -8 100 9 119 38 26 39 20 45 -45 45 -60 0 -60 0 -57 28
l3 27 93 1 92 1 0 -52 c0 -37 -5 -57 -19 -72 -11 -12 -18 -23 -15 -26 8 -7
-46 -42 -85 -55 -93 -32 -201 12 -247 101 -18 34 -17 141 1 177 48 94 176 135
273 89z m430 5 c4 -5 20 -15 35 -22 26 -11 75 -78 69 -95 -1 -4 3 -17 9 -28
13 -25 2 -109 -12 -88 -5 8 -9 9 -9 4 0 -6 5 -16 11 -22 6 -6 8 -16 4 -23 -5
-8 -11 -6 -20 7 -12 16 -13 15 -8 -9 5 -28 -29 -74 -48 -63 -5 4 -8 1 -7 -5 2
-7 -13 -18 -32 -25 -149 -56 -296 73 -261 228 11 47 52 109 68 103 7 -3 10 1
7 8 -9 22 56 45 124 42 35 -1 66 -6 70 -12z m208 -1 c13 -17 15 -17 26 2 11
19 11 19 19 0 4 -11 8 -32 8 -47 1 -16 6 -28 11 -28 6 0 10 -5 10 -11 0 -5 -5
-7 -12 -3 -8 5 -9 2 -4 -12 17 -40 16 -50 -4 -72 -26 -27 -18 -42 11 -23 25
15 25 15 33 -26 8 -36 -10 -55 -29 -30 -19 26 -25 20 -20 -15 4 -27 2 -25 -11
12 -9 25 -16 68 -16 95 0 36 -2 44 -8 30 l-9 -20 -1 20 c-1 11 -4 32 -6 48 -1
15 2 27 8 27 6 0 8 3 4 8 -4 4 -13 7 -19 7 -7 0 -13 12 -15 28 -4 31 5 35 24
10z m244 5 c-8 -7 -20 -19 -26 -26 -9 -10 -12 -8 -10 12 1 20 6 26 26 26 20 0
22 -2 10 -12z m200 -49 c-10 -34 -20 -50 -20 -31 0 14 18 62 24 62 3 0 1 -14
-4 -31z m-240 -19 c0 -11 -4 -20 -9 -20 -5 0 -7 9 -4 20 3 11 7 20 9 20 2 0 4
-9 4 -20z m22 -22 c-7 -7 -12 -21 -12 -32 0 -20 0 -20 15 0 13 17 14 16 4 -13
-6 -18 -16 -31 -22 -30 -7 1 -13 -10 -15 -25 -2 -14 -11 -32 -20 -39 -14 -11
-15 -11 -4 1 15 18 16 57 0 62 -7 3 -8 10 -4 17 7 11 10 11 17 0 6 -10 9 -6 9
13 0 15 5 30 10 33 6 3 10 16 10 28 0 16 3 18 12 9 9 -9 9 -15 0 -24z m218
-38 c-6 -12 -14 -19 -17 -17 -2 3 1 15 7 27 6 12 14 19 17 17 2 -3 -1 -15 -7
-27z m-143 -22 c-3 -7 -5 -2 -5 12 0 14 2 19 5 13 2 -7 2 -19 0 -25z m43 -53
c0 -5 -5 -3 -10 5 -5 8 -10 20 -10 25 0 6 5 3 10 -5 5 -8 10 -19 10 -25z
m-183 -7 c-3 -7 -5 -2 -5 12 0 14 2 19 5 13 2 -7 2 -19 0 -25z m278 -15 c-5
-21 -8 -24 -16 -12 -5 7 -9 19 -9 24 0 6 5 3 10 -5 7 -12 10 -8 11 15 0 17 3
24 6 17 3 -7 2 -25 -2 -39z m-238 -25 c-3 -8 -6 -5 -6 6 -1 11 2 17 5 13 3 -3
4 -12 1 -19z m153 6 c0 -8 -5 -12 -10 -9 -6 4 -8 11 -5 16 9 14 15 11 15 -7z
m-180 -53 c0 -3 -7 2 -14 12 -12 15 -13 12 -9 -28 l6 -45 -34 4 c-19 2 -39 0
-45 -5 -8 -6 -11 0 -10 19 1 24 5 28 21 24 16 -5 18 -3 9 9 -9 11 -9 17 2 27
12 11 14 9 15 -10 1 -19 4 -17 17 13 l16 36 13 -24 c7 -14 13 -28 13 -32z
m272 17 c-7 -7 -12 -8 -12 -2 0 14 12 26 19 19 2 -3 -1 -11 -7 -17z m-132 2
c0 -5 -4 -10 -10 -10 -5 0 -10 5 -10 10 0 6 5 10 10 10 6 0 10 -4 10 -10z
m107 -22 c-3 -7 -5 -2 -5 12 0 14 2 19 5 13 2 -7 2 -19 0 -25z"/>
<path d="M2300 2680 c0 -5 5 -10 11 -10 5 0 7 5 4 10 -3 6 -8 10 -11 10 -2 0
-4 -4 -4 -10z"/>
<path d="M2150 2649 c-38 -14 -54 -46 -60 -121 -3 -36 -3 -65 -1 -63 2 2 14
-9 28 -26 22 -26 31 -29 81 -29 47 0 62 4 84 25 15 14 30 37 33 50 3 14 7 36
10 50 4 16 0 32 -10 42 -9 9 -14 24 -12 34 4 14 -5 21 -41 33 -51 18 -75 19
-112 5z"/>
<path d="M2317 2613 c-4 -3 -7 -11 -7 -17 0 -6 5 -5 12 2 6 6 9 14 7 17 -3 3
-9 2 -12 -2z"/>
<path d="M2075 2390 c-3 -5 -1 -10 4 -10 6 0 11 5 11 10 0 6 -2 10 -4 10 -3 0
-8 -4 -11 -10z"/>
<path d="M2516 2674 c-4 -9 -4 -19 -1 -22 2 -3 7 3 11 12 4 9 4 19 1 22 -2 3
-7 -3 -11 -12z"/>
<path d="M2561 2474 c0 -11 3 -14 6 -6 3 7 2 16 -1 19 -3 4 -6 -2 -5 -13z"/>
</g>
</svg>
